# xmcd
#
# Track frame offsets:
# 150
# 17653
# 32513
# 49595
# 69253
# 90665
# 109268
# 123370
# 138680
# 152375
# 163233
# 179280
# 194818
# 204570
# 218165
# 234145
# 249523
# 262295
# 280108
# 298240
# 314055
#
# Disc length: 4354 seconds
#
#
# Revision: 7
# Processed by: cddbd v1.5.1PL0 Copyright (c) Steve Scherf et al.
# Submitted via: FreeRIP 2.941 
#
DISCID=3c110015
DTITLE=Renato Teixeira and Pena Branca E Xavantinho - Ao Vivo Em Tatuí
DYEAR=1992
DGENRE=Acoustic
TTITLE0=Amanheceu, Peguei A Viola
TTITLE1=Chalana
TTITLE2=Rio De Lágrimas
TTITLE3=Raízes
TTITLE4=Romaria
TTITLE5=O Cio Da Terra
TTITLE6=Gente Que Vem De Lisboa - Peixinhos Do Mar
TTITLE7=Vide, Vida Marvada
TTITLE8=O Violeiro Toca
TTITLE9=Meu Veneno
TTITLE10=Amora
TTITLE11=Tocando Em Frente
TTITLE12=Canto Do Povo De Um Lugar
TTITLE13=Jardim Da Fantasia
TTITLE14=Vaca Estrela E Boi Fubá
TTITLE15=Cuitelinho
TTITLE16=Quebra De Milho
TTITLE17=Chuá Chuá
TTITLE18=Rapaz Caipira
TTITLE19=De Papo Pro Á
TTITLE20=Calix Bento
EXTD=2004
EXTT0=
EXTT1=
EXTT2=
EXTT3=
EXTT4=
EXTT5=
EXTT6=
EXTT7=
EXTT8=
EXTT9=
EXTT10=
EXTT11=
EXTT12=
EXTT13=
EXTT14=
EXTT15=
EXTT16=
EXTT17=
EXTT18=
EXTT19=
EXTT20=
PLAYORDER=
